<svg xmlns="http://www.w3.org/2000/svg" width="190" height="88" viewBox="0 0 190 88"><g transform="translate(-85 -312)"><ellipse cx="95" cy="44" rx="95" ry="44" transform="translate(85 312)" fill="#fff"/><g transform="translate(-64.451 104.039)"><ellipse cx="90.117" cy="38.801" rx="90.117" ry="38.801" transform="translate(154.333 213.16)" fill="#1c1c1c"/><ellipse cx="84.023" cy="36.177" rx="84.023" ry="36.177" transform="translate(160.428 218.408)" fill="#fada00"/><path d="M149.086.5H0v-1H149.086Z" transform="translate(169.936 271.657)" fill="#1c1c1c"/><path d="M141.652.5H0v-1H141.652Z" transform="translate(173.913 274.769)" fill="#1c1c1c"/><path d="M133.555.5H0v-1H133.555Z" transform="translate(177.86 277.189)" fill="#1c1c1c"/><path d="M124.882.5H0v-1H124.882Z" transform="translate(181.866 279.437)" fill="#1c1c1c"/><path d="M113.574.5H0v-1H113.574Z" transform="translate(187.686 281.685)" fill="#1c1c1c"/><path d="M303.965,309.406s-11.662,4.015-41.551,4.043a168.083,168.083,0,0,1-36.422-3.928V294.365h77.972Z" transform="translate(-20.039 -22.708)" fill="#1c1c1c"/><rect width="74.86" height="12.189" transform="translate(207.511 272.521)" fill="#fff"/><g transform="translate(184.72 227.134)"><text transform="translate(37.44 38.497)" fill="#004a97" font-size="33" font-family="Poppins-BoldItalic, Poppins" font-weight="700" font-style="italic" letter-spacing="-0.02em"><tspan x="0" y="0">OLEX</tspan></text><text transform="translate(29.476 53.309)" fill="#004a97" font-size="6" font-family="Poppins-Bold, Poppins" font-weight="700" letter-spacing="-0.02em"><tspan x="0" y="0">MESSAGERIE EXPRESS</tspan></text><path d="M225.128,245.8h9.466s5.62-9.336-3.415-12.448-20.638,3.566-24.334,9.855c-1.205,2.052-3.843,6.885-1.191,10.113,2.76,3.36,10.962,3.046,10.916,6.614-.065,4.992-7.974,8.623-10.892,5.057a4.137,4.137,0,0,1,.767-5.057l-11.011-.389s-6.9,12.812,7.132,14.263a24.836,24.836,0,0,0,14.912-2.788c6.588-3.556,14.895-12.178,10.373-19.385-4.149-6.613-12.448-2.334-11.416-7.941.473-2.567,3.844-3.224,5.587-3.167C224.739,240.609,225.517,242.359,225.128,245.8Z" transform="translate(-193.739 -232.559)" fill="#004a97"/></g></g></g></svg>
