<svg xmlns="http://www.w3.org/2000/svg" width="250.2" height="107.725" viewBox="0 0 250.2 107.725"><defs><style>.a{fill:#1c1c1c;}.b{fill:#fada00;}.c{fill:none;stroke:#1c1c1c;stroke-miterlimit:10;}.d{fill:#fff;}.e,.f,.g{fill:#004a97;}.e{font-size:48px;font-family:Poppins-BoldItalic, Poppins;font-style:italic;}.e,.f{font-weight:700;letter-spacing:-0.02em;}.f{font-size:9.5px;font-family:Poppins-Bold, Poppins;}</style></defs><g transform="translate(-154.333 -213.16)"><ellipse class="a" cx="125.1" cy="53.862" rx="125.1" ry="53.862" transform="translate(154.333 213.16)"/><ellipse class="b" cx="116.64" cy="50.22" rx="116.64" ry="50.22" transform="translate(162.793 220.445)"/><line class="c" x2="206.96" transform="translate(175.993 294.365)"/><line class="c" x2="196.64" transform="translate(181.513 298.685)"/><line class="c" x2="185.4" transform="translate(186.993 302.045)"/><line class="c" x2="173.36" transform="translate(192.553 305.165)"/><line class="c" x2="157.663" transform="translate(200.633 308.285)"/><path class="a" d="M334.233,315.245s-16.189,5.574-57.68,5.613a233.329,233.329,0,0,1-50.56-5.453v-21.04h108.24Z"/><rect class="d" width="103.92" height="16.92" transform="translate(228.153 295.565)"/><text class="e" transform="translate(245.713 287.413)"><tspan x="0" y="0">OLEX</tspan></text><text class="f" transform="translate(230.493 306.845)"><tspan x="0" y="0">MESSAGERIE EXPRESS</tspan></text><path class="g" d="M237.313,250.934h13.14s7.8-12.96-4.74-17.28-28.65,4.95-33.78,13.68c-1.673,2.848-5.335,9.557-1.653,14.039,3.831,4.664,15.218,4.228,15.153,9.181-.09,6.93-11.07,11.97-15.12,7.02-.9-1.1-1.44-4.59,1.065-7.02l-15.285-.54s-9.576,17.785,9.9,19.8a34.477,34.477,0,0,0,20.7-3.87c9.145-4.936,20.677-16.906,14.4-26.91-5.76-9.18-17.28-3.24-15.847-11.024.657-3.563,5.336-4.475,7.756-4.4C236.773,243.734,237.853,246.164,237.313,250.934Z"/></g></svg>
